G04 #@! TF.GenerationSoftware,KiCad,Pcbnew,(6.0.0)*
G04 #@! TF.CreationDate,2022-06-08T22:37:19+08:00*
G04 #@! TF.ProjectId,wf50_pcb,77663530-5f70-4636-922e-6b696361645f,rev?*
G04 #@! TF.SameCoordinates,Original*
G04 #@! TF.FileFunction,Copper,L2,Bot*
G04 #@! TF.FilePolarity,Positive*
%FSLAX46Y46*%
G04 Gerber Fmt 4.6, Leading zero omitted, Abs format (unit mm)*
G04 Created by KiCad (PCBNEW (6.0.0)) date 2022-06-08 22:37:19*
%MOMM*%
%LPD*%
G01*
G04 APERTURE LIST*
G04 Aperture macros list*
%AMRoundRect*
0 Rectangle with rounded corners*
0 $1 Rounding radius*
0 $2 $3 $4 $5 $6 $7 $8 $9 X,Y pos of 4 corners*
0 Add a 4 corners polygon primitive as box body*
4,1,4,$2,$3,$4,$5,$6,$7,$8,$9,$2,$3,0*
0 Add four circle primitives for the rounded corners*
1,1,$1+$1,$2,$3*
1,1,$1+$1,$4,$5*
1,1,$1+$1,$6,$7*
1,1,$1+$1,$8,$9*
0 Add four rect primitives between the rounded corners*
20,1,$1+$1,$2,$3,$4,$5,0*
20,1,$1+$1,$4,$5,$6,$7,0*
20,1,$1+$1,$6,$7,$8,$9,0*
20,1,$1+$1,$8,$9,$2,$3,0*%
G04 Aperture macros list end*
G04 #@! TA.AperFunction,Profile*
%ADD10C,0.150000*%
G04 #@! TD*
%ADD11C,0.300000*%
G04 #@! TA.AperFunction,NonConductor*
%ADD12C,0.300000*%
G04 #@! TD*
G04 #@! TA.AperFunction,ComponentPad*
%ADD13R,1.600000X1.600000*%
G04 #@! TD*
G04 #@! TA.AperFunction,ComponentPad*
%ADD14O,1.600000X1.600000*%
G04 #@! TD*
G04 #@! TA.AperFunction,ComponentPad*
%ADD15RoundRect,0.381000X-0.381000X-0.381000X0.381000X-0.381000X0.381000X0.381000X-0.381000X0.381000X0*%
G04 #@! TD*
G04 #@! TA.AperFunction,ComponentPad*
%ADD16RoundRect,0.381000X-0.381000X0.381000X-0.381000X-0.381000X0.381000X-0.381000X0.381000X0.381000X0*%
G04 #@! TD*
G04 #@! TA.AperFunction,ComponentPad*
%ADD17C,2.250000*%
G04 #@! TD*
G04 #@! TA.AperFunction,ComponentPad*
%ADD18R,1.700000X1.700000*%
G04 #@! TD*
G04 #@! TA.AperFunction,ComponentPad*
%ADD19O,1.700000X1.700000*%
G04 #@! TD*
G04 #@! TA.AperFunction,ComponentPad*
%ADD20R,1.350000X1.350000*%
G04 #@! TD*
G04 #@! TA.AperFunction,ComponentPad*
%ADD21O,1.350000X1.350000*%
G04 #@! TD*
G04 #@! TA.AperFunction,ComponentPad*
%ADD22C,1.600000*%
G04 #@! TD*
G04 #@! TA.AperFunction,ViaPad*
%ADD23C,0.800000*%
G04 #@! TD*
G04 #@! TA.AperFunction,Conductor*
%ADD24C,0.250000*%
G04 #@! TD*
G04 #@! TA.AperFunction,Conductor*
%ADD25C,0.350000*%
G04 #@! TD*
G04 APERTURE END LIST*
D10*
X58995300Y-66674850D02*
G75*
G03*
X58995300Y-66674850I-1850000J0D01*
G01*
X19045885Y-28575000D02*
X133345800Y-28575000D01*
X133345800Y-123824330D02*
X97253375Y-123824330D01*
X97253375Y-123824330D02*
X79575605Y-106146559D01*
X76262750Y-104774330D02*
X19045885Y-104774330D01*
X116145300Y-47624850D02*
G75*
G03*
X116145300Y-47624850I-1850000J0D01*
G01*
X39945300Y-66674850D02*
G75*
G03*
X39945300Y-66674850I-1850000J0D01*
G01*
X19045885Y-104774330D02*
X19045885Y-28575000D01*
X97095300Y-66674850D02*
G75*
G03*
X97095300Y-66674850I-1850000J0D01*
G01*
X79575605Y-106146559D02*
G75*
G03*
X76262750Y-104774330I-3312857J-3312861D01*
G01*
X58995300Y-47624850D02*
G75*
G03*
X58995300Y-47624850I-1850000J0D01*
G01*
X58995300Y-85724850D02*
G75*
G03*
X58995300Y-85724850I-1850000J0D01*
G01*
X116145300Y-85724850D02*
G75*
G03*
X116145300Y-85724850I-1850000J0D01*
G01*
X39945300Y-85724850D02*
G75*
G03*
X39945300Y-85724850I-1850000J0D01*
G01*
X97095300Y-85724850D02*
G75*
G03*
X97095300Y-85724850I-1850000J0D01*
G01*
X78045300Y-47624850D02*
G75*
G03*
X78045300Y-47624850I-1850000J0D01*
G01*
X97095300Y-47624850D02*
G75*
G03*
X97095300Y-47624850I-1850000J0D01*
G01*
X116145300Y-104774850D02*
G75*
G03*
X116145300Y-104774850I-1850000J0D01*
G01*
X133345800Y-28575000D02*
X133345800Y-123824330D01*
X78045300Y-85724850D02*
G75*
G03*
X78045300Y-85724850I-1850000J0D01*
G01*
X78045300Y-66674850D02*
G75*
G03*
X78045300Y-66674850I-1850000J0D01*
G01*
X116145300Y-66674850D02*
G75*
G03*
X116145300Y-66674850I-1850000J0D01*
G01*
D11*
D12*
X102532714Y-97452571D02*
X103247000Y-97452571D01*
X103247000Y-95952571D01*
D13*
X120190000Y-80000000D03*
D14*
X127810000Y-80000000D03*
D13*
X81690000Y-80000000D03*
D14*
X89310000Y-80000000D03*
D15*
X114270000Y-30810000D03*
D16*
X119350000Y-35810000D03*
X116810000Y-35810000D03*
X111770000Y-35810000D03*
X109190000Y-35810000D03*
D17*
X81915000Y-73660000D03*
X89535000Y-73660000D03*
X88265000Y-71120000D03*
X83185000Y-71120000D03*
D13*
X57000000Y-43310000D03*
D14*
X57000000Y-35690000D03*
D17*
X108585000Y-111760000D03*
X100965000Y-111760000D03*
X102235000Y-109220000D03*
X107315000Y-109220000D03*
X32385000Y-54610000D03*
X24765000Y-54610000D03*
X26035000Y-52070000D03*
X31115000Y-52070000D03*
X120015000Y-73660000D03*
X127635000Y-73660000D03*
X126365000Y-71120000D03*
X121285000Y-71120000D03*
D18*
X128220000Y-86160000D03*
D19*
X128220000Y-88700000D03*
X128220000Y-91240000D03*
D17*
X70485000Y-92710000D03*
X62865000Y-92710000D03*
X69215000Y-90170000D03*
X64135000Y-90170000D03*
D13*
X43690000Y-66500000D03*
D14*
X51310000Y-66500000D03*
D17*
X51435000Y-54610000D03*
X43815000Y-54610000D03*
X50165000Y-52070000D03*
X45085000Y-52070000D03*
X43815000Y-73660000D03*
X51435000Y-73660000D03*
X45085000Y-71120000D03*
X50165000Y-71120000D03*
X70485000Y-35560000D03*
X62865000Y-35560000D03*
X69215000Y-33020000D03*
X64135000Y-33020000D03*
X127635000Y-54610000D03*
X120015000Y-54610000D03*
X121285000Y-52070000D03*
X126365000Y-52070000D03*
X89535000Y-54610000D03*
X81915000Y-54610000D03*
X88265000Y-52070000D03*
X83185000Y-52070000D03*
D20*
X101990000Y-94200000D03*
D21*
X99990000Y-94200000D03*
D13*
X62690000Y-80000000D03*
D14*
X70310000Y-80000000D03*
D13*
X100690000Y-118500000D03*
D14*
X108310000Y-118500000D03*
D17*
X89535000Y-35560000D03*
X81915000Y-35560000D03*
X88265000Y-33020000D03*
X83185000Y-33020000D03*
X24765000Y-92710000D03*
X32385000Y-92710000D03*
X31115000Y-90170000D03*
X26035000Y-90170000D03*
X43815000Y-35560000D03*
X51435000Y-35560000D03*
X50165000Y-33020000D03*
X45085000Y-33020000D03*
D13*
X94500000Y-42310000D03*
D14*
X94500000Y-34690000D03*
D13*
X38000000Y-72690000D03*
D14*
X38000000Y-80310000D03*
D13*
X101190000Y-47500000D03*
D14*
X108810000Y-47500000D03*
D17*
X100965000Y-54610000D03*
X108585000Y-54610000D03*
X107315000Y-52070000D03*
X102235000Y-52070000D03*
X100965000Y-40640000D03*
X108585000Y-40640000D03*
X107315000Y-43180000D03*
X102235000Y-43180000D03*
D13*
X95500000Y-62310000D03*
D14*
X95500000Y-54690000D03*
D17*
X89535000Y-92710000D03*
X81915000Y-92710000D03*
X88265000Y-90170000D03*
X83185000Y-90170000D03*
D13*
X63190000Y-100500000D03*
D14*
X70810000Y-100500000D03*
D13*
X32810000Y-66000000D03*
D14*
X25190000Y-66000000D03*
D17*
X70485000Y-54610000D03*
X62865000Y-54610000D03*
X64135000Y-52070000D03*
X69215000Y-52070000D03*
D13*
X76500000Y-42810000D03*
D14*
X76500000Y-35190000D03*
D13*
X120170000Y-118470000D03*
D14*
X127790000Y-118470000D03*
D17*
X24765000Y-35560000D03*
X32385000Y-35560000D03*
X26035000Y-33020000D03*
X31115000Y-33020000D03*
D13*
X24690000Y-100500000D03*
D14*
X32310000Y-100500000D03*
D13*
X82190000Y-100500000D03*
D14*
X89810000Y-100500000D03*
D13*
X57000000Y-62310000D03*
D14*
X57000000Y-54690000D03*
D13*
X114500000Y-62310000D03*
D14*
X114500000Y-54690000D03*
D13*
X100690000Y-80000000D03*
D14*
X108310000Y-80000000D03*
D13*
X100690000Y-102000000D03*
D14*
X108310000Y-102000000D03*
D13*
X76000000Y-62310000D03*
D14*
X76000000Y-54690000D03*
D17*
X120015000Y-111760000D03*
X127635000Y-111760000D03*
X126365000Y-109220000D03*
X121285000Y-109220000D03*
X120015000Y-40640000D03*
X127635000Y-40640000D03*
X126365000Y-43180000D03*
X121285000Y-43180000D03*
X43815000Y-92710000D03*
X51435000Y-92710000D03*
X50165000Y-90170000D03*
X45085000Y-90170000D03*
D13*
X20670000Y-30370000D03*
D22*
X20670000Y-32910000D03*
X20670000Y-35450000D03*
X20670000Y-37990000D03*
X20670000Y-40530000D03*
X20670000Y-43070000D03*
X20670000Y-45610000D03*
X20670000Y-48150000D03*
X20670000Y-50690000D03*
X20670000Y-53230000D03*
X20670000Y-55770000D03*
X20670000Y-58310000D03*
X35910000Y-58310000D03*
X35910000Y-55770000D03*
X35910000Y-53230000D03*
X35910000Y-50690000D03*
X35910000Y-48150000D03*
X35910000Y-45610000D03*
X35910000Y-43070000D03*
X35910000Y-40530000D03*
X35910000Y-37990000D03*
X35910000Y-35450000D03*
X35910000Y-32910000D03*
X35910000Y-30370000D03*
D13*
X43690000Y-100500000D03*
D14*
X51310000Y-100500000D03*
D17*
X62865000Y-73660000D03*
X70485000Y-73660000D03*
X64135000Y-71120000D03*
X69215000Y-71120000D03*
D13*
X43690000Y-80000000D03*
D14*
X51310000Y-80000000D03*
D13*
X43190000Y-46500000D03*
D14*
X50810000Y-46500000D03*
D17*
X24765000Y-73660000D03*
X32385000Y-73660000D03*
X26035000Y-71120000D03*
X31115000Y-71120000D03*
X118110000Y-92710000D03*
X110490000Y-92710000D03*
X111760000Y-90170000D03*
X116840000Y-90170000D03*
X100965000Y-73660000D03*
X108585000Y-73660000D03*
X107315000Y-71120000D03*
X102235000Y-71120000D03*
D13*
X39000000Y-42810000D03*
D14*
X39000000Y-35190000D03*
D23*
X59850000Y-85090000D03*
X123210000Y-83460000D03*
X40830000Y-69410000D03*
X105600000Y-34260000D03*
X100620000Y-33470000D03*
X103850000Y-33390000D03*
X34240000Y-35010000D03*
X124180000Y-33360000D03*
X24070000Y-45490000D03*
X57300000Y-51710000D03*
X76560000Y-52080000D03*
X46810000Y-44540000D03*
X106760000Y-49790000D03*
X96780000Y-103360000D03*
D24*
X95500000Y-62310000D02*
X114500000Y-62310000D01*
X57000000Y-62310000D02*
X76000000Y-62310000D01*
X76000000Y-62310000D02*
X95500000Y-62310000D01*
X26360000Y-52395000D02*
X26360000Y-55940000D01*
X26035000Y-52070000D02*
X26360000Y-52395000D01*
X25190000Y-57110000D02*
X25190000Y-66000000D01*
X26360000Y-55940000D02*
X25190000Y-57110000D01*
X120190000Y-80000000D02*
X119065489Y-81124511D01*
X44820000Y-81130000D02*
X43690000Y-80000000D01*
X61560000Y-81130000D02*
X44820000Y-81130000D01*
X119065489Y-81124511D02*
X101814511Y-81124511D01*
X62690000Y-80000000D02*
X61560000Y-81130000D01*
X81690000Y-80000000D02*
X79240000Y-82450000D01*
X43690000Y-80000000D02*
X38000000Y-74310000D01*
X82814511Y-81124511D02*
X81690000Y-80000000D01*
X38000000Y-74310000D02*
X38000000Y-72690000D01*
X99565489Y-81124511D02*
X82814511Y-81124511D01*
X79240000Y-82450000D02*
X65140000Y-82450000D01*
X100690000Y-80000000D02*
X99565489Y-81124511D01*
X101814511Y-81124511D02*
X100690000Y-80000000D01*
X65140000Y-82450000D02*
X62690000Y-80000000D01*
X37920489Y-34110489D02*
X32205489Y-34110489D01*
X39000000Y-35190000D02*
X37920489Y-34110489D01*
X32205489Y-34110489D02*
X31115000Y-33020000D01*
X54210000Y-43100000D02*
X50810000Y-46500000D01*
X51755990Y-33020000D02*
X54210000Y-35474010D01*
X54210000Y-35474010D02*
X54210000Y-43100000D01*
X50165000Y-33020000D02*
X51755990Y-33020000D01*
D25*
X114270000Y-30810000D02*
X131130000Y-30810000D01*
X125709511Y-88670489D02*
X128220000Y-86160000D01*
X38020000Y-30800000D02*
X38020000Y-30340000D01*
X131130000Y-30810000D02*
X131720000Y-31400000D01*
X102729511Y-88670489D02*
X125709511Y-88670489D01*
X131720000Y-31400000D02*
X131720000Y-85755000D01*
X131315000Y-86160000D02*
X128220000Y-86160000D01*
X38020000Y-30340000D02*
X39050000Y-29310000D01*
X39050000Y-29310000D02*
X112770000Y-29310000D01*
X112770000Y-29310000D02*
X114270000Y-30810000D01*
X131720000Y-85755000D02*
X131315000Y-86160000D01*
X101990000Y-89410000D02*
X102729511Y-88670489D01*
X101990000Y-94200000D02*
X101990000Y-89410000D01*
X35910000Y-32910000D02*
X38020000Y-30800000D01*
D24*
X62930969Y-88170969D02*
X101459031Y-88170969D01*
X113060000Y-83290000D02*
X123040000Y-83290000D01*
X111780000Y-84570000D02*
X113060000Y-83290000D01*
X123040000Y-83290000D02*
X123210000Y-83460000D01*
X34170000Y-43900000D02*
X34170000Y-55660000D01*
X33340000Y-43070000D02*
X34170000Y-43900000D01*
X40830000Y-57970000D02*
X40830000Y-69410000D01*
X103210000Y-86420000D02*
X110800245Y-86420000D01*
X20670000Y-43070000D02*
X33340000Y-43070000D01*
X110800245Y-86420000D02*
X111780000Y-85440245D01*
X34170000Y-55660000D02*
X35695489Y-57185489D01*
X101459031Y-88170969D02*
X103210000Y-86420000D01*
X35695489Y-57185489D02*
X40045489Y-57185489D01*
X59850000Y-85090000D02*
X62930969Y-88170969D01*
X40045489Y-57185489D02*
X40830000Y-57970000D01*
X111780000Y-85440245D02*
X111780000Y-84570000D01*
D25*
X100620000Y-33470000D02*
X101440000Y-34290000D01*
X105570000Y-34290000D02*
X105600000Y-34260000D01*
X101440000Y-34290000D02*
X105570000Y-34290000D01*
X34240000Y-35740000D02*
X34240000Y-35010000D01*
X40174511Y-35676499D02*
X39226499Y-36624511D01*
X101780000Y-33380000D02*
X98580000Y-30180000D01*
X40174511Y-30985489D02*
X40174511Y-35676499D01*
X98580000Y-30180000D02*
X40980000Y-30180000D01*
X35124511Y-36624511D02*
X34240000Y-35740000D01*
X39226499Y-36624511D02*
X35124511Y-36624511D01*
X103850000Y-33390000D02*
X103840000Y-33380000D01*
X124150000Y-33390000D02*
X124180000Y-33360000D01*
X103840000Y-33380000D02*
X101780000Y-33380000D01*
X40980000Y-30180000D02*
X40174511Y-30985489D01*
X103850000Y-33390000D02*
X124150000Y-33390000D01*
D24*
X35245000Y-70800000D02*
X35300000Y-70800000D01*
X32385000Y-73660000D02*
X35245000Y-70800000D01*
X24070000Y-53915000D02*
X24070000Y-45490000D01*
X35300000Y-70800000D02*
X35910000Y-70190000D01*
X35910000Y-70190000D02*
X35910000Y-58310000D01*
X24765000Y-54610000D02*
X24070000Y-53915000D01*
X43060000Y-53855000D02*
X43060000Y-49090000D01*
X43815000Y-54610000D02*
X43060000Y-53855000D01*
X51435000Y-42425000D02*
X51435000Y-35560000D01*
X49070000Y-73660000D02*
X51435000Y-73660000D01*
X47550000Y-72140000D02*
X49070000Y-73660000D01*
X44410000Y-60120000D02*
X47550000Y-63260000D01*
X43815000Y-54610000D02*
X44410000Y-55205000D01*
X44410000Y-55205000D02*
X44410000Y-60120000D01*
X47650000Y-46210000D02*
X51435000Y-42425000D01*
X45940000Y-46210000D02*
X47650000Y-46210000D01*
X43060000Y-49090000D02*
X45940000Y-46210000D01*
X47550000Y-63260000D02*
X47550000Y-72140000D01*
X57300000Y-51710000D02*
X60200000Y-54610000D01*
X71640000Y-53455000D02*
X71640000Y-47510000D01*
X70485000Y-54610000D02*
X71640000Y-53455000D01*
X70485000Y-46355000D02*
X70485000Y-35560000D01*
X60200000Y-54610000D02*
X62865000Y-54610000D01*
X71640000Y-47510000D02*
X70485000Y-46355000D01*
X76560000Y-52080000D02*
X79090000Y-54610000D01*
X90230000Y-53915000D02*
X90230000Y-41000000D01*
X89535000Y-40305000D02*
X89535000Y-35560000D01*
X90230000Y-41000000D02*
X89535000Y-40305000D01*
X89535000Y-54610000D02*
X90230000Y-53915000D01*
X79090000Y-54610000D02*
X81915000Y-54610000D01*
X41220000Y-45610000D02*
X35910000Y-45610000D01*
X106760000Y-49790000D02*
X115195000Y-49790000D01*
X46810000Y-44540000D02*
X46710000Y-44640000D01*
X46710000Y-44640000D02*
X42190000Y-44640000D01*
X115195000Y-49790000D02*
X120015000Y-54610000D01*
X42190000Y-44640000D02*
X41220000Y-45610000D01*
X96780000Y-95060000D02*
X97640000Y-94200000D01*
X96780000Y-103360000D02*
X96780000Y-95060000D01*
X97640000Y-94200000D02*
X99990000Y-94200000D01*
M02*
