G04 #@! TF.GenerationSoftware,KiCad,Pcbnew,(6.0.0)*
G04 #@! TF.CreationDate,2022-06-08T22:37:19+08:00*
G04 #@! TF.ProjectId,wf50_pcb,77663530-5f70-4636-922e-6b696361645f,rev?*
G04 #@! TF.SameCoordinates,Original*
G04 #@! TF.FileFunction,Paste,Bot*
G04 #@! TF.FilePolarity,Positive*
%FSLAX46Y46*%
G04 Gerber Fmt 4.6, Leading zero omitted, Abs format (unit mm)*
G04 Created by KiCad (PCBNEW (6.0.0)) date 2022-06-08 22:37:19*
%MOMM*%
%LPD*%
G01*
G04 APERTURE LIST*
G04 #@! TA.AperFunction,Profile*
%ADD10C,0.150000*%
G04 #@! TD*
G04 APERTURE END LIST*
D10*
X58995300Y-66674850D02*
G75*
G03*
X58995300Y-66674850I-1850000J0D01*
G01*
X19045885Y-28575000D02*
X133345800Y-28575000D01*
X133345800Y-123824330D02*
X97253375Y-123824330D01*
X97253375Y-123824330D02*
X79575605Y-106146559D01*
X76262750Y-104774330D02*
X19045885Y-104774330D01*
X116145300Y-47624850D02*
G75*
G03*
X116145300Y-47624850I-1850000J0D01*
G01*
X39945300Y-66674850D02*
G75*
G03*
X39945300Y-66674850I-1850000J0D01*
G01*
X19045885Y-104774330D02*
X19045885Y-28575000D01*
X97095300Y-66674850D02*
G75*
G03*
X97095300Y-66674850I-1850000J0D01*
G01*
X79575605Y-106146559D02*
G75*
G03*
X76262750Y-104774330I-3312857J-3312861D01*
G01*
X58995300Y-47624850D02*
G75*
G03*
X58995300Y-47624850I-1850000J0D01*
G01*
X58995300Y-85724850D02*
G75*
G03*
X58995300Y-85724850I-1850000J0D01*
G01*
X116145300Y-85724850D02*
G75*
G03*
X116145300Y-85724850I-1850000J0D01*
G01*
X39945300Y-85724850D02*
G75*
G03*
X39945300Y-85724850I-1850000J0D01*
G01*
X97095300Y-85724850D02*
G75*
G03*
X97095300Y-85724850I-1850000J0D01*
G01*
X78045300Y-47624850D02*
G75*
G03*
X78045300Y-47624850I-1850000J0D01*
G01*
X97095300Y-47624850D02*
G75*
G03*
X97095300Y-47624850I-1850000J0D01*
G01*
X116145300Y-104774850D02*
G75*
G03*
X116145300Y-104774850I-1850000J0D01*
G01*
X133345800Y-28575000D02*
X133345800Y-123824330D01*
X78045300Y-85724850D02*
G75*
G03*
X78045300Y-85724850I-1850000J0D01*
G01*
X78045300Y-66674850D02*
G75*
G03*
X78045300Y-66674850I-1850000J0D01*
G01*
X116145300Y-66674850D02*
G75*
G03*
X116145300Y-66674850I-1850000J0D01*
G01*
M02*
