M48
; DRILL file {KiCad (6.0.0)} date Wed Jun  8 22:37:18 2022
; FORMAT={-:-/ absolute / metric / decimal}
; #@! TF.CreationDate,2022-06-08T22:37:18+08:00
; #@! TF.GenerationSoftware,Kicad,Pcbnew,(6.0.0)
; #@! TF.FileFunction,Plated,1,2,PTH
FMAT,2
METRIC
; #@! TA.AperFunction,Plated,PTH,ViaDrill
T1C0.400
; #@! TA.AperFunction,Plated,PTH,ComponentDrill
T2C0.700
; #@! TA.AperFunction,Plated,PTH,ComponentDrill
T3C0.800
; #@! TA.AperFunction,Plated,PTH,ComponentDrill
T4C1.000
; #@! TA.AperFunction,Plated,PTH,ComponentDrill
T5C1.100
; #@! TA.AperFunction,Plated,PTH,ComponentDrill
T6C1.470
%
G90
G05
T1
X24.07Y-45.49
X34.24Y-35.01
X40.83Y-69.41
X46.81Y-44.54
X57.3Y-51.71
X59.85Y-85.09
X76.56Y-52.08
X96.78Y-103.36
X100.62Y-33.47
X103.85Y-33.39
X105.6Y-34.26
X106.76Y-49.79
X123.21Y-83.46
X124.18Y-33.36
T3
X24.69Y-100.5
X25.19Y-66.0
X32.31Y-100.5
X32.81Y-66.0
X38.0Y-72.69
X38.0Y-80.31
X39.0Y-35.19
X39.0Y-42.81
X43.19Y-46.5
X43.69Y-66.5
X43.69Y-80.0
X43.69Y-100.5
X50.81Y-46.5
X51.31Y-66.5
X51.31Y-80.0
X51.31Y-100.5
X57.0Y-35.69
X57.0Y-43.31
X57.0Y-54.69
X57.0Y-62.31
X62.69Y-80.0
X63.19Y-100.5
X70.31Y-80.0
X70.81Y-100.5
X76.0Y-54.69
X76.0Y-62.31
X76.5Y-35.19
X76.5Y-42.81
X81.69Y-80.0
X82.19Y-100.5
X89.31Y-80.0
X89.81Y-100.5
X94.5Y-34.69
X94.5Y-42.31
X95.5Y-54.69
X95.5Y-62.31
X99.99Y-94.2
X100.69Y-80.0
X100.69Y-102.0
X100.69Y-118.5
X101.19Y-47.5
X101.99Y-94.2
X108.31Y-80.0
X108.31Y-102.0
X108.31Y-118.5
X108.81Y-47.5
X114.5Y-54.69
X114.5Y-62.31
X120.17Y-118.47
X120.19Y-80.0
X127.79Y-118.47
X127.81Y-80.0
T4
X128.22Y-86.16
X128.22Y-88.7
X128.22Y-91.24
T5
X20.67Y-30.37
X20.67Y-32.91
X20.67Y-35.45
X20.67Y-37.99
X20.67Y-40.53
X20.67Y-43.07
X20.67Y-45.61
X20.67Y-48.15
X20.67Y-50.69
X20.67Y-53.23
X20.67Y-55.77
X20.67Y-58.31
X35.91Y-30.37
X35.91Y-32.91
X35.91Y-35.45
X35.91Y-37.99
X35.91Y-40.53
X35.91Y-43.07
X35.91Y-45.61
X35.91Y-48.15
X35.91Y-50.69
X35.91Y-53.23
X35.91Y-55.77
X35.91Y-58.31
T6
X24.765Y-35.56
X24.765Y-54.61
X24.765Y-73.66
X24.765Y-92.71
X26.035Y-33.02
X26.035Y-52.07
X26.035Y-71.12
X26.035Y-90.17
X31.115Y-33.02
X31.115Y-52.07
X31.115Y-71.12
X31.115Y-90.17
X32.385Y-35.56
X32.385Y-54.61
X32.385Y-73.66
X32.385Y-92.71
X43.815Y-35.56
X43.815Y-54.61
X43.815Y-73.66
X43.815Y-92.71
X45.085Y-33.02
X45.085Y-52.07
X45.085Y-71.12
X45.085Y-90.17
X50.165Y-33.02
X50.165Y-52.07
X50.165Y-71.12
X50.165Y-90.17
X51.435Y-35.56
X51.435Y-54.61
X51.435Y-73.66
X51.435Y-92.71
X62.865Y-35.56
X62.865Y-54.61
X62.865Y-73.66
X62.865Y-92.71
X64.135Y-33.02
X64.135Y-52.07
X64.135Y-71.12
X64.135Y-90.17
X69.215Y-33.02
X69.215Y-52.07
X69.215Y-71.12
X69.215Y-90.17
X70.485Y-35.56
X70.485Y-54.61
X70.485Y-73.66
X70.485Y-92.71
X81.915Y-35.56
X81.915Y-54.61
X81.915Y-73.66
X81.915Y-92.71
X83.185Y-33.02
X83.185Y-52.07
X83.185Y-71.12
X83.185Y-90.17
X88.265Y-33.02
X88.265Y-52.07
X88.265Y-71.12
X88.265Y-90.17
X89.535Y-35.56
X89.535Y-54.61
X89.535Y-73.66
X89.535Y-92.71
X100.965Y-40.64
X100.965Y-54.61
X100.965Y-73.66
X100.965Y-111.76
X102.235Y-43.18
X102.235Y-52.07
X102.235Y-71.12
X102.235Y-109.22
X107.315Y-43.18
X107.315Y-52.07
X107.315Y-71.12
X107.315Y-109.22
X108.585Y-40.64
X108.585Y-54.61
X108.585Y-73.66
X108.585Y-111.76
X110.49Y-92.71
X111.76Y-90.17
X116.84Y-90.17
X118.11Y-92.71
X120.015Y-40.64
X120.015Y-54.61
X120.015Y-73.66
X120.015Y-111.76
X121.285Y-43.18
X121.285Y-52.07
X121.285Y-71.12
X121.285Y-109.22
X126.365Y-43.18
X126.365Y-52.07
X126.365Y-71.12
X126.365Y-109.22
X127.635Y-40.64
X127.635Y-54.61
X127.635Y-73.66
X127.635Y-111.76
T2
G00X109.19Y-35.56
M15
G01X109.19Y-36.06
M16
G05
G00X111.77Y-35.56
M15
G01X111.77Y-36.06
M16
G05
G00X114.02Y-30.81
M15
G01X114.52Y-30.81
M16
G05
G00X116.81Y-35.56
M15
G01X116.81Y-36.06
M16
G05
G00X119.35Y-35.56
M15
G01X119.35Y-36.06
M16
G05
T0
M30
