G04 #@! TF.GenerationSoftware,KiCad,Pcbnew,(6.0.0)*
G04 #@! TF.CreationDate,2022-06-08T22:37:20+08:00*
G04 #@! TF.ProjectId,wf50_pcb,77663530-5f70-4636-922e-6b696361645f,rev?*
G04 #@! TF.SameCoordinates,Original*
G04 #@! TF.FileFunction,Soldermask,Top*
G04 #@! TF.FilePolarity,Negative*
%FSLAX46Y46*%
G04 Gerber Fmt 4.6, Leading zero omitted, Abs format (unit mm)*
G04 Created by KiCad (PCBNEW (6.0.0)) date 2022-06-08 22:37:20*
%MOMM*%
%LPD*%
G01*
G04 APERTURE LIST*
G04 Aperture macros list*
%AMRoundRect*
0 Rectangle with rounded corners*
0 $1 Rounding radius*
0 $2 $3 $4 $5 $6 $7 $8 $9 X,Y pos of 4 corners*
0 Add a 4 corners polygon primitive as box body*
4,1,4,$2,$3,$4,$5,$6,$7,$8,$9,$2,$3,0*
0 Add four circle primitives for the rounded corners*
1,1,$1+$1,$2,$3*
1,1,$1+$1,$4,$5*
1,1,$1+$1,$6,$7*
1,1,$1+$1,$8,$9*
0 Add four rect primitives between the rounded corners*
20,1,$1+$1,$2,$3,$4,$5,0*
20,1,$1+$1,$4,$5,$6,$7,0*
20,1,$1+$1,$6,$7,$8,$9,0*
20,1,$1+$1,$8,$9,$2,$3,0*%
%AMFreePoly0*
4,1,6,1.000000,0.000000,0.500000,-0.750000,-0.500000,-0.750000,-0.500000,0.750000,0.500000,0.750000,1.000000,0.000000,1.000000,0.000000,$1*%
G04 Aperture macros list end*
G04 #@! TA.AperFunction,Profile*
%ADD10C,0.150000*%
G04 #@! TD*
%ADD11C,0.300000*%
%ADD12R,1.600000X1.600000*%
%ADD13O,1.600000X1.600000*%
%ADD14RoundRect,0.381000X-0.381000X-0.381000X0.381000X-0.381000X0.381000X0.381000X-0.381000X0.381000X0*%
%ADD15RoundRect,0.381000X-0.381000X0.381000X-0.381000X-0.381000X0.381000X-0.381000X0.381000X0.381000X0*%
%ADD16R,1.500000X1.500000*%
%ADD17FreePoly0,0.000000*%
%ADD18FreePoly0,180.000000*%
%ADD19C,3.987800*%
%ADD20C,1.750000*%
%ADD21C,2.250000*%
%ADD22R,1.700000X1.700000*%
%ADD23O,1.700000X1.700000*%
%ADD24R,1.350000X1.350000*%
%ADD25O,1.350000X1.350000*%
%ADD26C,1.600000*%
G04 APERTURE END LIST*
D10*
X58995300Y-66674850D02*
G75*
G03*
X58995300Y-66674850I-1850000J0D01*
G01*
X19045885Y-28575000D02*
X133345800Y-28575000D01*
X133345800Y-123824330D02*
X97253375Y-123824330D01*
X97253375Y-123824330D02*
X79575605Y-106146559D01*
X76262750Y-104774330D02*
X19045885Y-104774330D01*
X116145300Y-47624850D02*
G75*
G03*
X116145300Y-47624850I-1850000J0D01*
G01*
X39945300Y-66674850D02*
G75*
G03*
X39945300Y-66674850I-1850000J0D01*
G01*
X19045885Y-104774330D02*
X19045885Y-28575000D01*
X97095300Y-66674850D02*
G75*
G03*
X97095300Y-66674850I-1850000J0D01*
G01*
X79575605Y-106146559D02*
G75*
G03*
X76262750Y-104774330I-3312857J-3312861D01*
G01*
X58995300Y-47624850D02*
G75*
G03*
X58995300Y-47624850I-1850000J0D01*
G01*
X58995300Y-85724850D02*
G75*
G03*
X58995300Y-85724850I-1850000J0D01*
G01*
X116145300Y-85724850D02*
G75*
G03*
X116145300Y-85724850I-1850000J0D01*
G01*
X39945300Y-85724850D02*
G75*
G03*
X39945300Y-85724850I-1850000J0D01*
G01*
X97095300Y-85724850D02*
G75*
G03*
X97095300Y-85724850I-1850000J0D01*
G01*
X78045300Y-47624850D02*
G75*
G03*
X78045300Y-47624850I-1850000J0D01*
G01*
X97095300Y-47624850D02*
G75*
G03*
X97095300Y-47624850I-1850000J0D01*
G01*
X116145300Y-104774850D02*
G75*
G03*
X116145300Y-104774850I-1850000J0D01*
G01*
X133345800Y-28575000D02*
X133345800Y-123824330D01*
X78045300Y-85724850D02*
G75*
G03*
X78045300Y-85724850I-1850000J0D01*
G01*
X78045300Y-66674850D02*
G75*
G03*
X78045300Y-66674850I-1850000J0D01*
G01*
X116145300Y-66674850D02*
G75*
G03*
X116145300Y-66674850I-1850000J0D01*
G01*
D11*
X99524285Y-97452571D02*
X99024285Y-96738285D01*
X98667142Y-97452571D02*
X98667142Y-95952571D01*
X99238571Y-95952571D01*
X99381428Y-96024000D01*
X99452857Y-96095428D01*
X99524285Y-96238285D01*
X99524285Y-96452571D01*
X99452857Y-96595428D01*
X99381428Y-96666857D01*
X99238571Y-96738285D01*
X98667142Y-96738285D01*
D12*
X120190000Y-80000000D03*
D13*
X127810000Y-80000000D03*
D12*
X81690000Y-80000000D03*
D13*
X89310000Y-80000000D03*
D14*
X114270000Y-30810000D03*
D15*
X119350000Y-35810000D03*
X116810000Y-35810000D03*
X111770000Y-35810000D03*
X109190000Y-35810000D03*
D16*
X123830000Y-30570000D03*
X126230000Y-30570000D03*
D17*
X123030000Y-30570000D03*
D18*
X127030000Y-30570000D03*
D19*
X85725000Y-76200000D03*
D20*
X80645000Y-76200000D03*
X90805000Y-76200000D03*
D21*
X81915000Y-73660000D03*
X89535000Y-73660000D03*
X88265000Y-71120000D03*
X83185000Y-71120000D03*
D12*
X57000000Y-43310000D03*
D13*
X57000000Y-35690000D03*
D20*
X109855000Y-114300000D03*
X99695000Y-114300000D03*
D19*
X104775000Y-114300000D03*
D21*
X108585000Y-111760000D03*
X100965000Y-111760000D03*
X102235000Y-109220000D03*
X107315000Y-109220000D03*
D20*
X23495000Y-57150000D03*
D19*
X28575000Y-57150000D03*
D20*
X33655000Y-57150000D03*
D21*
X32385000Y-54610000D03*
X24765000Y-54610000D03*
X26035000Y-52070000D03*
X31115000Y-52070000D03*
D20*
X128905000Y-76200000D03*
X118745000Y-76200000D03*
D19*
X123825000Y-76200000D03*
D21*
X120015000Y-73660000D03*
X127635000Y-73660000D03*
X126365000Y-71120000D03*
X121285000Y-71120000D03*
D22*
X128220000Y-86160000D03*
D23*
X128220000Y-88700000D03*
X128220000Y-91240000D03*
D20*
X71755000Y-95250000D03*
X61595000Y-95250000D03*
D19*
X66675000Y-95250000D03*
D21*
X70485000Y-92710000D03*
X62865000Y-92710000D03*
X69215000Y-90170000D03*
X64135000Y-90170000D03*
D12*
X43690000Y-66500000D03*
D13*
X51310000Y-66500000D03*
D20*
X42545000Y-57150000D03*
D19*
X47625000Y-57150000D03*
D20*
X52705000Y-57150000D03*
D21*
X51435000Y-54610000D03*
X43815000Y-54610000D03*
X50165000Y-52070000D03*
X45085000Y-52070000D03*
D19*
X47625000Y-76200000D03*
D20*
X42545000Y-76200000D03*
X52705000Y-76200000D03*
D21*
X43815000Y-73660000D03*
X51435000Y-73660000D03*
X45085000Y-71120000D03*
X50165000Y-71120000D03*
D19*
X66675000Y-38100000D03*
D20*
X71755000Y-38100000D03*
X61595000Y-38100000D03*
D21*
X70485000Y-35560000D03*
X62865000Y-35560000D03*
X69215000Y-33020000D03*
X64135000Y-33020000D03*
D19*
X123825000Y-57150000D03*
D20*
X128905000Y-57150000D03*
X118745000Y-57150000D03*
D21*
X127635000Y-54610000D03*
X120015000Y-54610000D03*
X121285000Y-52070000D03*
X126365000Y-52070000D03*
D19*
X85725000Y-57150000D03*
D20*
X80645000Y-57150000D03*
X90805000Y-57150000D03*
D21*
X89535000Y-54610000D03*
X81915000Y-54610000D03*
X88265000Y-52070000D03*
X83185000Y-52070000D03*
D24*
X101990000Y-94200000D03*
D25*
X99990000Y-94200000D03*
D12*
X62690000Y-80000000D03*
D13*
X70310000Y-80000000D03*
D12*
X100690000Y-118500000D03*
D13*
X108310000Y-118500000D03*
D20*
X80645000Y-38100000D03*
X90805000Y-38100000D03*
D19*
X85725000Y-38100000D03*
D21*
X89535000Y-35560000D03*
X81915000Y-35560000D03*
X88265000Y-33020000D03*
X83185000Y-33020000D03*
D19*
X28575000Y-95250000D03*
D20*
X33655000Y-95250000D03*
X23495000Y-95250000D03*
D21*
X24765000Y-92710000D03*
X32385000Y-92710000D03*
X31115000Y-90170000D03*
X26035000Y-90170000D03*
D20*
X42545000Y-38100000D03*
X52705000Y-38100000D03*
D19*
X47625000Y-38100000D03*
D21*
X43815000Y-35560000D03*
X51435000Y-35560000D03*
X50165000Y-33020000D03*
X45085000Y-33020000D03*
D12*
X94500000Y-42310000D03*
D13*
X94500000Y-34690000D03*
D12*
X38000000Y-72690000D03*
D13*
X38000000Y-80310000D03*
D12*
X101190000Y-47500000D03*
D13*
X108810000Y-47500000D03*
D20*
X99695000Y-57150000D03*
D19*
X104775000Y-57150000D03*
D20*
X109855000Y-57150000D03*
D21*
X100965000Y-54610000D03*
X108585000Y-54610000D03*
X107315000Y-52070000D03*
X102235000Y-52070000D03*
D19*
X104775000Y-38100000D03*
D20*
X99695000Y-38100000D03*
X109855000Y-38100000D03*
D21*
X100965000Y-40640000D03*
X108585000Y-40640000D03*
X107315000Y-43180000D03*
X102235000Y-43180000D03*
D12*
X95500000Y-62310000D03*
D13*
X95500000Y-54690000D03*
D19*
X85725000Y-95250000D03*
D20*
X90805000Y-95250000D03*
X80645000Y-95250000D03*
D21*
X89535000Y-92710000D03*
X81915000Y-92710000D03*
X88265000Y-90170000D03*
X83185000Y-90170000D03*
D12*
X63190000Y-100500000D03*
D13*
X70810000Y-100500000D03*
D12*
X32810000Y-66000000D03*
D13*
X25190000Y-66000000D03*
D16*
X102450000Y-30890000D03*
X104850000Y-30890000D03*
D17*
X101650000Y-30890000D03*
D18*
X105650000Y-30890000D03*
D19*
X66675000Y-57150000D03*
D20*
X61595000Y-57150000D03*
X71755000Y-57150000D03*
D21*
X70485000Y-54610000D03*
X62865000Y-54610000D03*
X64135000Y-52070000D03*
X69215000Y-52070000D03*
D12*
X76500000Y-42810000D03*
D13*
X76500000Y-35190000D03*
D12*
X120170000Y-118470000D03*
D13*
X127790000Y-118470000D03*
D20*
X23495000Y-38100000D03*
X33655000Y-38100000D03*
D19*
X28575000Y-38100000D03*
D21*
X24765000Y-35560000D03*
X32385000Y-35560000D03*
X26035000Y-33020000D03*
X31115000Y-33020000D03*
D12*
X24690000Y-100500000D03*
D13*
X32310000Y-100500000D03*
D12*
X82190000Y-100500000D03*
D13*
X89810000Y-100500000D03*
D12*
X57000000Y-62310000D03*
D13*
X57000000Y-54690000D03*
D12*
X114500000Y-62310000D03*
D13*
X114500000Y-54690000D03*
D12*
X100690000Y-80000000D03*
D13*
X108310000Y-80000000D03*
D12*
X100690000Y-102000000D03*
D13*
X108310000Y-102000000D03*
D12*
X76000000Y-62310000D03*
D13*
X76000000Y-54690000D03*
D20*
X118745000Y-114300000D03*
X128905000Y-114300000D03*
D19*
X123825000Y-114300000D03*
D21*
X120015000Y-111760000D03*
X127635000Y-111760000D03*
X126365000Y-109220000D03*
X121285000Y-109220000D03*
D20*
X118745000Y-38100000D03*
X128905000Y-38100000D03*
D19*
X123825000Y-38100000D03*
D21*
X120015000Y-40640000D03*
X127635000Y-40640000D03*
X126365000Y-43180000D03*
X121285000Y-43180000D03*
D19*
X47625000Y-95250000D03*
D20*
X52705000Y-95250000D03*
X42545000Y-95250000D03*
D21*
X43815000Y-92710000D03*
X51435000Y-92710000D03*
X50165000Y-90170000D03*
X45085000Y-90170000D03*
D12*
X20670000Y-30370000D03*
D26*
X20670000Y-32910000D03*
X20670000Y-35450000D03*
X20670000Y-37990000D03*
X20670000Y-40530000D03*
X20670000Y-43070000D03*
X20670000Y-45610000D03*
X20670000Y-48150000D03*
X20670000Y-50690000D03*
X20670000Y-53230000D03*
X20670000Y-55770000D03*
X20670000Y-58310000D03*
X35910000Y-58310000D03*
X35910000Y-55770000D03*
X35910000Y-53230000D03*
X35910000Y-50690000D03*
X35910000Y-48150000D03*
X35910000Y-45610000D03*
X35910000Y-43070000D03*
X35910000Y-40530000D03*
X35910000Y-37990000D03*
X35910000Y-35450000D03*
X35910000Y-32910000D03*
X35910000Y-30370000D03*
D12*
X43690000Y-100500000D03*
D13*
X51310000Y-100500000D03*
D19*
X66675000Y-76200000D03*
D20*
X71755000Y-76200000D03*
X61595000Y-76200000D03*
D21*
X62865000Y-73660000D03*
X70485000Y-73660000D03*
X64135000Y-71120000D03*
X69215000Y-71120000D03*
D12*
X43690000Y-80000000D03*
D13*
X51310000Y-80000000D03*
D12*
X43190000Y-46500000D03*
D13*
X50810000Y-46500000D03*
D20*
X23495000Y-76200000D03*
X33655000Y-76200000D03*
D19*
X28575000Y-76200000D03*
D21*
X24765000Y-73660000D03*
X32385000Y-73660000D03*
X26035000Y-71120000D03*
X31115000Y-71120000D03*
D19*
X114300000Y-95250000D03*
D20*
X109220000Y-95250000D03*
X119380000Y-95250000D03*
D21*
X118110000Y-92710000D03*
X110490000Y-92710000D03*
X111760000Y-90170000D03*
X116840000Y-90170000D03*
D20*
X109855000Y-76200000D03*
D19*
X104775000Y-76200000D03*
D20*
X99695000Y-76200000D03*
D21*
X100965000Y-73660000D03*
X108585000Y-73660000D03*
X107315000Y-71120000D03*
X102235000Y-71120000D03*
D12*
X39000000Y-42810000D03*
D13*
X39000000Y-35190000D03*
M02*
