M48
; DRILL file {KiCad (6.0.0)} date Wed Jun  8 22:37:18 2022
; FORMAT={-:-/ absolute / metric / decimal}
; #@! TF.CreationDate,2022-06-08T22:37:18+08:00
; #@! TF.GenerationSoftware,Kicad,Pcbnew,(6.0.0)
; #@! TF.FileFunction,NonPlated,1,2,NPTH
FMAT,2
METRIC
; #@! TA.AperFunction,NonPlated,NPTH,ComponentDrill
T1C1.750
; #@! TA.AperFunction,NonPlated,NPTH,ComponentDrill
T2C3.988
%
G90
G05
T1
X23.495Y-38.1
X23.495Y-57.15
X23.495Y-76.2
X23.495Y-95.25
X33.655Y-38.1
X33.655Y-57.15
X33.655Y-76.2
X33.655Y-95.25
X42.545Y-38.1
X42.545Y-57.15
X42.545Y-76.2
X42.545Y-95.25
X52.705Y-38.1
X52.705Y-57.15
X52.705Y-76.2
X52.705Y-95.25
X61.595Y-38.1
X61.595Y-57.15
X61.595Y-76.2
X61.595Y-95.25
X71.755Y-38.1
X71.755Y-57.15
X71.755Y-76.2
X71.755Y-95.25
X80.645Y-38.1
X80.645Y-57.15
X80.645Y-76.2
X80.645Y-95.25
X90.805Y-38.1
X90.805Y-57.15
X90.805Y-76.2
X90.805Y-95.25
X99.695Y-38.1
X99.695Y-57.15
X99.695Y-76.2
X99.695Y-114.3
X109.22Y-95.25
X109.855Y-38.1
X109.855Y-57.15
X109.855Y-76.2
X109.855Y-114.3
X118.745Y-38.1
X118.745Y-57.15
X118.745Y-76.2
X118.745Y-114.3
X119.38Y-95.25
X128.905Y-38.1
X128.905Y-57.15
X128.905Y-76.2
X128.905Y-114.3
T2
X28.575Y-38.1
X28.575Y-57.15
X28.575Y-76.2
X28.575Y-95.25
X47.625Y-38.1
X47.625Y-57.15
X47.625Y-76.2
X47.625Y-95.25
X66.675Y-38.1
X66.675Y-57.15
X66.675Y-76.2
X66.675Y-95.25
X85.725Y-38.1
X85.725Y-57.15
X85.725Y-76.2
X85.725Y-95.25
X104.775Y-38.1
X104.775Y-57.15
X104.775Y-76.2
X104.775Y-114.3
X114.3Y-95.25
X123.825Y-38.1
X123.825Y-57.15
X123.825Y-76.2
X123.825Y-114.3
T0
M30
